<svg width="41" height="40" viewBox="0 0 41 40" fill="none" xmlns="http://www.w3.org/2000/svg">
<path d="M27.1666 6.66699H13.8334C10.1515 6.66699 7.16678 9.65173 7.16678 13.3336V26.6668C7.16678 30.3487 10.1515 33.3334 13.8334 33.3334H27.1666C30.8485 33.3334 33.8332 30.3487 33.8332 26.6668V13.3336C33.8332 9.65173 30.8485 6.66699 27.1666 6.66699Z" stroke="#B2B2B2" stroke-width="3.3333" stroke-linecap="round" stroke-linejoin="round"/>
<path d="M20.5 24.9999C23.2614 24.9999 25.4999 22.7613 25.4999 20C25.4999 17.2386 23.2614 15 20.5 15C17.7386 15 15.5 17.2386 15.5 20C15.5 22.7613 17.7386 24.9999 20.5 24.9999Z" stroke="#B2B2B2" stroke-width="3.3333" stroke-linecap="round" stroke-linejoin="round"/>
<path d="M27.9999 12.5V12.5017" stroke="#B2B2B2" stroke-width="3.3333" stroke-linecap="round" stroke-linejoin="round"/>
</svg>
