<svg width="41" height="40" viewBox="0 0 41 40" fill="none" xmlns="http://www.w3.org/2000/svg">
<path d="M30.5002 6.66699H10.5002C8.65925 6.66699 7.16687 8.15938 7.16687 10.0003V30.0003C7.16687 31.8413 8.65925 33.3337 10.5002 33.3337H30.5002C32.3412 33.3337 33.8335 31.8413 33.8335 30.0003V10.0003C33.8335 8.15938 32.3412 6.66699 30.5002 6.66699Z" stroke="#B2B2B2" stroke-width="3.33333" stroke-linecap="round" stroke-linejoin="round"/>
<path d="M13.8335 18.333V26.6663" stroke="#B2B2B2" stroke-width="3.33333" stroke-linecap="round" stroke-linejoin="round"/>
<path d="M13.8335 13.333V13.3497" stroke="#B2B2B2" stroke-width="3.33333" stroke-linecap="round" stroke-linejoin="round"/>
<path d="M20.5002 26.6663V18.333" stroke="#B2B2B2" stroke-width="3.33333" stroke-linecap="round" stroke-linejoin="round"/>
<path d="M27.1669 26.6663V21.6663C27.1669 20.7823 26.8157 19.9344 26.1905 19.3093C25.5654 18.6842 24.7176 18.333 23.8335 18.333C22.9495 18.333 22.1016 18.6842 21.4765 19.3093C20.8514 19.9344 20.5002 20.7823 20.5002 21.6663" stroke="#B2B2B2" stroke-width="3.33333" stroke-linecap="round" stroke-linejoin="round"/>
</svg>
